HIERARCHY
ROOT Hips
{
	OFFSET	0.00	0.00	0.00
	CHANNELS 6 Xposition Yposition Zposition Zrotation Xrotation Yrotation
	JOINT LeftUpLeg
	{
		OFFSET	 0.126116	-0.014019	-0.065224
		CHANNELS 3 Zrotation Xrotation Yrotation
		JOINT LeftLeg
		{
			OFFSET	 0.000000	 0.000000	 0.569914
			CHANNELS 3 Zrotation Xrotation Yrotation
			JOINT LeftFoot
			{
				OFFSET	 0.000000	 0.000000	 0.544423
				CHANNELS 3 Zrotation Xrotation Yrotation
				JOINT LeftToeBase
				{
					OFFSET	 0.000000	 0.000000	 0.207117
					CHANNELS 3 Zrotation Xrotation Yrotation
					End Site
					{
						OFFSET	 0.000000	 0.000000	 0.207117
					}
				}
			}
		}
	}
	JOINT RightUpLeg
	{
		OFFSET	-0.124023	-0.008373	-0.065224
		CHANNELS 3 Zrotation Xrotation Yrotation
		JOINT RightLeg
		{
			OFFSET	 0.000000	 0.000000	 0.570047
			CHANNELS 3 Zrotation Xrotation Yrotation
			JOINT RightFoot
			{
				OFFSET	 0.000000	 0.000000	 0.544354
				CHANNELS 3 Zrotation Xrotation Yrotation
				JOINT RightToeBase
				{
					OFFSET	 0.000000	 0.000000	 0.207540
					CHANNELS 3 Zrotation Xrotation Yrotation
					End Site
					{
						OFFSET	 0.000000	 0.000000	 0.207540
					}
				}
			}
		}
	}
	JOINT Spine
	{
		OFFSET	 0.000184	-0.007763	 0.117403
		CHANNELS 3 Zrotation Xrotation Yrotation
		JOINT Spine1
		{
			OFFSET	 0.000000	 0.000000	 0.137269
			CHANNELS 3 Zrotation Xrotation Yrotation
			JOINT Spine2
			{
				OFFSET	 0.000000	 0.000000	 0.156879
				CHANNELS 3 Zrotation Xrotation Yrotation
				JOINT LeftShoulder
				{
					OFFSET	 0.080501	-0.002496	 0.160144
					CHANNELS 3 Zrotation Xrotation Yrotation
					JOINT LeftArm
					{
						OFFSET	 0.000000	 0.000000	 0.164363
						CHANNELS 3 Zrotation Xrotation Yrotation
						JOINT LeftForeArm
						{
							OFFSET	 0.000000	 0.000000	 0.364576
							CHANNELS 3 Zrotation Xrotation Yrotation
							JOINT LeftHand
							{
								OFFSET	 0.000000	 0.000000	 0.360812
								CHANNELS 3 Zrotation Xrotation Yrotation
								JOINT LeftHandIndex1
								{
									OFFSET	 0.000000	 0.000000	 0.086006
									CHANNELS 3 Zrotation Xrotation Yrotation
									JOINT LeftHandIndex2
									{
										OFFSET	 0.000000	 0.000000	 0.047237
										CHANNELS 3 Zrotation Xrotation Yrotation
										JOINT LeftHandIndex3
										{
											OFFSET	-0.004284	-0.000551	 0.038165
											CHANNELS 3 Zrotation Xrotation Yrotation
											End Site
											{
												OFFSET	-0.004284	-0.000551	 0.038165
											}
										}
									}
								}
							}
						}
					}
				}
				JOINT Neck
				{
					OFFSET	 0.000000	 0.000000	 0.176489
					CHANNELS 3 Zrotation Xrotation Yrotation
					JOINT Head
					{
						OFFSET	 0.000000	-0.001747	 0.077940
						CHANNELS 3 Zrotation Xrotation Yrotation
						End Site
						{
							OFFSET	 0.000000	-0.001747	 0.077940
						}
					}
				}
				JOINT RightShoulder
				{
					OFFSET	-0.080363	 0.000306	 0.159706
					CHANNELS 3 Zrotation Xrotation Yrotation
					JOINT RightArm
					{
						OFFSET	 0.000000	 0.000000	 0.164196
						CHANNELS 3 Zrotation Xrotation Yrotation
						JOINT RightForeArm
						{
							OFFSET	 0.000000	 0.000000	 0.365611
							CHANNELS 3 Zrotation Xrotation Yrotation
							JOINT RightHand
							{
								OFFSET	 0.000000	 0.000000	 0.360648
								CHANNELS 3 Zrotation Xrotation Yrotation
								JOINT RightHandIndex1
								{
									OFFSET	 0.000000	 0.000000	 0.069977
									CHANNELS 3 Zrotation Xrotation Yrotation
									JOINT RightHandIndex2
									{
										OFFSET	 0.000000	 0.000000	 0.052305
										CHANNELS 3 Zrotation Xrotation Yrotation
										JOINT RightHandIndex3
										{
											OFFSET	 0.009002	-0.000782	 0.042196
											CHANNELS 3 Zrotation Xrotation Yrotation
											End Site
											{
												OFFSET	 0.009002	-0.000782	 0.042196
											}
										}
									}
								}
							}
						}
					}
				}
			}
		}
	}
}
MOTION
Frames:    6
Frame Time: 0.03333334
-0.406321	 0.220114	 1.242887	-174.200700	 8.083584	 14.554980	 19.569830	-7.824452	 173.618800	-8.403991	-41.159530	-5.928050	 121.606300	 69.045940	-136.111400	-2.385833	 28.452760	 0.000004	-6.334626	-42.044640	 157.227700	 5.895680	-50.245780	 3.364631	-4.142025	 73.187860	 22.805710	 2.384659	 28.388700	-0.000001	 39.893490	-18.440820	 2.198930	 44.356090	 20.063140	 18.063790	-6.163485	-1.704169	-15.899010	-91.776210	 78.527350	-180.000000	-5.411608	 42.919690	-0.593448	-2.855092	-3.006563	-106.127000	 3.951795	-56.830410	-1.063912	-4.130319	 21.525730	 0.991547	-5.167930	 0.731704	 3.519349	-1.378229	 35.397820	-2.634230	-17.888410	 7.653049	 7.583507	-22.941810	-22.423150	-15.520370	 89.782140	 78.310070	 179.993000	 56.266780	 3.474287	-9.301167	-14.495420	-8.913399	 46.228610	-63.907410	-0.317139	-90.092400	 5.716227	 19.173190	-3.685159	 5.027444	 0.246877	-9.377972	-2.350882	 35.473990	 5.254307
-0.414947	 0.236342	 1.246824	-173.329000	 7.946197	 12.292320	 20.855140	-3.984937	 175.598900	-8.458200	-36.825770	-5.434952	 119.182700	 68.584900	-133.030300	-2.385833	 28.452760	 0.000004	-3.461503	-40.893530	 161.097500	 5.917226	-50.356060	 3.386635	-2.525637	 74.707670	 20.144380	 2.384659	 28.388700	-0.000001	 36.999960	-15.943150	 3.714215	 41.360390	 17.598430	 19.748810	-5.308886	-0.794480	-15.337270	-91.776180	 78.527360	 180.000000	-9.163960	 38.951570	 7.864184	-2.944727	-3.020732	-107.613900	 4.772906	-57.322360	-0.653289	-4.130319	 21.525730	 0.991547	-5.167930	 0.731704	 3.519349	-1.378229	 35.397820	-2.634230	-17.330470	 7.674132	 8.475282	-22.441950	-22.183610	-16.844700	 89.782120	 78.303280	 179.993300	 59.049790	-9.083312	-11.790580	-13.297640	-7.821989	 46.949940	-68.380040	-1.022928	-75.463130	 5.716227	 19.173190	-3.685159	 5.027444	 0.246877	-9.377972	-2.350882	 35.473990	 5.254307
-0.420502	 0.247476	 1.249726	-172.205300	 7.422283	 11.318800	 21.945110	-1.076276	 175.798500	-8.633227	-33.552230	-5.112336	 119.462700	 68.193790	-132.690600	-2.385833	 28.452760	 0.000004	-1.564011	-39.575220	 163.118700	 5.788833	-50.105920	 3.275638	-0.657906	 75.960560	 17.199960	 2.384659	 28.388700	-0.000001	 33.946670	-14.335150	 3.916337	 39.376260	 15.067550	 21.337080	-4.406102	 0.399252	-15.150670	-91.776210	 78.527400	-180.000000	-12.212740	 37.315750	 13.928780	-2.904554	-2.657221	-109.073400	 5.258850	-58.511270	-0.518358	-4.130319	 21.525730	 0.991547	-5.167930	 0.731704	 3.519349	-1.378229	 35.397820	-2.634230	-16.591630	 7.675693	 8.216884	-21.776840	-22.648710	-15.631560	 89.782100	 78.292490	 179.994100	 57.624090	-15.436990	-12.784690	-13.398260	-7.575820	 45.641090	-69.760550	-4.731666	-68.847680	 5.716227	 19.173190	-3.685159	 5.027444	 0.246877	-9.377972	-2.350882	 35.473990	 5.254307
-0.424302	 0.255292	 1.252272	-171.065900	 6.622800	 10.711110	 22.855730	 1.479231	 175.557500	-8.964881	-30.493020	-4.867285	 116.863600	 68.014930	-129.552100	-2.385833	 28.452760	 0.000004	 0.554071	-38.566020	 164.728200	 5.276449	-49.923990	 2.874076	 4.611652	 76.586170	 11.054570	 2.384659	 28.388700	-0.000001	 31.083210	-12.875220	 3.736193	 37.888740	 12.334500	 22.965470	-3.418332	 2.027618	-15.103460	-91.776190	 78.527400	-180.000000	-15.101230	 36.721150	 18.392390	-2.759712	-2.094910	-110.270300	 5.553481	-59.867440	-0.628982	-4.130319	 21.525730	 0.991547	-5.167930	 0.731704	 3.519349	-1.378229	 35.397820	-2.634230	-15.970410	 7.906556	 8.778093	-21.320150	-22.541690	-16.576250	 89.782130	 78.292260	 179.993400	 54.268460	-18.163540	-13.832370	-13.450180	-7.515665	 45.210520	-70.632580	-6.634131	-66.694560	 5.716227	 19.173190	-3.685159	 5.027444	 0.246877	-9.377972	-2.350882	 35.473990	 5.254307
-0.425418	 0.258458	 1.253632	-170.154300	 5.662952	 10.132910	 23.155750	 3.109723	 175.390500	-9.556492	-29.102280	-4.960436	 116.776200	 67.772220	-128.856200	-2.385833	 28.452760	 0.000004	 1.971552	-37.310490	 165.812900	 4.996893	-49.355200	 2.637490	 6.645731	 76.618450	 8.698133	 2.384659	 28.388700	-0.000001	 28.968310	-10.538390	 3.406892	 36.866540	 9.753050	 24.302400	-2.541817	 3.076019	-14.628060	-91.776250	 78.527380	-180.000000	-16.925200	 36.443970	 20.257310	-2.555639	-1.510110	-110.663400	 5.448070	-60.729700	-1.022359	-4.130319	 21.525730	 0.991547	-5.167930	 0.731704	 3.519349	-1.378229	 35.397820	-2.634230	-14.932560	 8.993134	 7.799838	-20.760220	-23.880040	-15.205970	 89.782100	 78.292980	 179.993200	 50.198590	-18.679880	-14.617880	-13.333420	-7.221077	 44.532090	-70.396740	-8.674280	-66.841750	 5.716227	 19.173190	-3.685159	 5.027444	 0.246877	-9.377972	-2.350882	 35.473990	 5.254307
-0.425659	 0.259562	 1.254502	-169.458100	 4.958064	 9.903898	 24.321840	 3.770829	 174.748400	-10.273950	-28.661430	-5.245142	 118.440500	 67.595890	-129.872000	-2.385833	 28.452760	 0.000004	 4.408117	-36.656360	 166.651400	 4.020838	-48.737070	 1.878384	 10.745420	 76.183000	 4.471465	 2.384659	 28.388700	-0.000001	 27.396070	-8.748851	 2.893148	 36.377820	 7.683531	 25.276720	-1.719929	 4.150990	-14.178840	-91.776270	 78.527400	-179.999900	-18.693750	 36.746770	 21.025480	-2.470582	-1.278864	-110.744700	 6.035938	-61.552970	-0.938054	-4.130319	 21.525730	 0.991547	-5.167930	 0.731704	 3.519349	-1.378229	 35.397820	-2.634230	-13.904470	 8.545312	 7.292130	-19.958000	-23.295390	-14.280060	 89.782100	 78.293290	 179.992900	 47.401760	-18.283750	-15.357680	-13.253240	-7.211255	 44.813450	-69.147510	-9.815428	-66.696080	 5.716227	 19.173190	-3.685159	 5.027444	 0.246877	-9.377972	-2.350882	 35.473990	 5.254307
